<svg width="1600" height="1000" viewBox="0 0 1600 1000" fill="none" xmlns="http://www.w3.org/2000/svg">
  <rect width="1600" height="1000" fill="#050505"/>
  <rect x="80" y="80" width="1440" height="840" rx="28" fill="#0A0A0A" stroke="#202020"/>
  <rect x="120" y="120" width="520" height="760" rx="24" fill="#0E0E0E" stroke="#222222"/>
  <rect x="960" y="120" width="520" height="760" rx="24" fill="#0E0E0E" stroke="#222222"/>
  <rect x="160" y="160" width="180" height="42" rx="12" fill="#FF6A1A"/>
  <circle cx="185" cy="181" r="6" fill="#050505"/>
  <circle cx="209" cy="181" r="6" fill="#050505"/>
  <circle cx="233" cy="181" r="6" fill="#050505"/>
  <rect x="160" y="232" width="420" height="18" rx="9" fill="#1A1A1A"/>
  <rect x="160" y="276" width="340" height="18" rx="9" fill="#1A1A1A"/>
  <rect x="160" y="320" width="384" height="18" rx="9" fill="#1A1A1A"/>
  <rect x="160" y="364" width="300" height="18" rx="9" fill="#1A1A1A"/>
  <rect x="160" y="408" width="368" height="18" rx="9" fill="#1A1A1A"/>
  <rect x="160" y="452" width="250" height="18" rx="9" fill="#1A1A1A"/>
  <rect x="160" y="520" width="420" height="180" rx="20" fill="#090909" stroke="#202020"/>
  <path d="M180 560H560" stroke="#2A2A2A" stroke-width="2"/>
  <path d="M180 600H560" stroke="#2A2A2A" stroke-width="2"/>
  <path d="M180 640H560" stroke="#2A2A2A" stroke-width="2"/>
  <circle cx="220" cy="600" r="14" fill="#FF6A1A"/>
  <circle cx="360" cy="560" r="14" fill="#C2410C"/>
  <circle cx="500" cy="640" r="14" fill="#7C2D12"/>
  <path d="M360 560L500 640" stroke="#FF6A1A" stroke-width="4" stroke-linecap="round"/>
  <path d="M220 600L360 560" stroke="#FFFFFF" stroke-opacity="0.18" stroke-width="4" stroke-linecap="round"/>
  <path d="M220 600L500 640" stroke="#FFFFFF" stroke-opacity="0.12" stroke-width="4" stroke-linecap="round"/>
  <rect x="1000" y="160" width="440" height="140" rx="20" fill="#090909" stroke="#202020"/>
  <rect x="1040" y="200" width="94" height="58" rx="16" fill="#FF6A1A"/>
  <rect x="1166" y="200" width="94" height="58" rx="16" fill="#1A1A1A"/>
  <rect x="1292" y="200" width="94" height="58" rx="16" fill="#1A1A1A"/>
  <rect x="1040" y="356" width="94" height="58" rx="16" fill="#1A1A1A"/>
  <rect x="1166" y="356" width="94" height="58" rx="16" fill="#1A1A1A"/>
  <rect x="1292" y="356" width="94" height="58" rx="16" fill="#FF6A1A"/>
  <rect x="1000" y="484" width="440" height="160" rx="20" fill="#090909" stroke="#202020"/>
  <path d="M1040 540H1400" stroke="#2A2A2A" stroke-width="2"/>
  <path d="M1040 590H1400" stroke="#2A2A2A" stroke-width="2"/>
  <circle cx="1090" cy="540" r="18" fill="#FF6A1A"/>
  <circle cx="1210" cy="590" r="18" fill="#C2410C"/>
  <circle cx="1330" cy="540" r="18" fill="#7C2D12"/>
  <path d="M1090 540H1210" stroke="#FF6A1A" stroke-width="5" stroke-linecap="round"/>
  <path d="M1210 590H1330" stroke="#FFFFFF" stroke-opacity="0.18" stroke-width="5" stroke-linecap="round"/>
  <rect x="1000" y="676" width="440" height="164" rx="20" fill="#090909" stroke="#202020"/>
  <rect x="1040" y="720" width="360" height="14" rx="7" fill="#1A1A1A"/>
  <rect x="1040" y="756" width="300" height="14" rx="7" fill="#1A1A1A"/>
  <rect x="1040" y="792" width="340" height="14" rx="7" fill="#1A1A1A"/>
  <rect x="1040" y="828" width="220" height="14" rx="7" fill="#1A1A1A"/>
  <text x="160" y="846" fill="#FFFFFF" fill-opacity="0.2" font-family="Arial, sans-serif" font-size="28" letter-spacing="4">LABORATÓRIO LINUX</text>
  <text x="1000" y="146" fill="#FFFFFF" fill-opacity="0.2" font-family="Arial, sans-serif" font-size="24" letter-spacing="3">CLIENTE / SERVIDOR</text>
</svg>
